<?xml version="1.0" encoding="utf-8"?>
<!-- Generator: Adobe Illustrator 27.8.1, SVG Export Plug-In . SVG Version: 6.00 Build 0)  -->
<svg version="1.1" id="Layer_1" xmlns="http://www.w3.org/2000/svg" xmlns:xlink="http://www.w3.org/1999/xlink" x="0px" y="0px"
	 viewBox="0 0 320 320" style="enable-background:new 0 0 320 320;" xml:space="preserve">
<style type="text/css">
	.st0{fill:#090908;}
</style>
<g>
	<g>
		<path class="st0" d="M0,320c0-6.66,0-13.06,0-19.81c31.19,0,62.23,0,93.45,0c0-6.73,0-13.11,0-19.85c-28.9,0-57.73,0-86.82,0
			c0-6.85,0-13.35,0-20.29c28.85,0,57.78,0,86.84,0c0-9,0-17.55,0-26.55c-28.88,0-57.8,0-86.92,0c0-49.18,0-97.92,0-147.1
			c28.89,0,57.82,0,86.9,0c0-9.09,0-17.74,0-26.69c-29,0-57.84,0-86.89,0c0-6.8,0-13.31,0-20.16c28.92,0,57.76,0,86.83,0
			c0-6.73,0-13.12,0-19.85c-30.95,0-62.01,0-93.3,0c0-6.71,0-13.08,0-19.69c37.62,0,75.22,0,113.11,0c0,37.46,0,74.96,0,112.67
			c11.1,0,21.91,0,33.09,0c0-33.13,0-66.29,0-99.71c9.17,0,17.99,0,27.16,0c0,33.13,0,66.3,0,99.7c11.14,0,21.94,0,33.1,0
			c0-37.44,0-74.9,0-112.62c37.94,0,75.53,0,113.36,0c0,6.26,0,12.64,0,19.36c-30.8,0-61.6,0-92.59,0c0,6.73,0,13.11,0,19.85
			c28.59,0,57.17,0,86.04,0c0,6.85,0,13.35,0,20.29c-28.54,0-57.22,0-86.06,0c0,9.09,0,17.74,0,26.68c28.73,0,57.32,0,86.13,0
			c0,49.13,0,97.96,0,147.1c-28.73,0-57.33,0-86.11,0c0,8.95,0,17.59,0,26.54c28.66,0,57.25,0,86.09,0c0,6.8,0,13.31,0,20.17
			c-28.57,0-57.16,0-86.01,0c0,6.82,0,13.29,0,20.11c30.84,0,61.64,0,92.6,0c0,6.75,0,13.15,0,19.87c-37.64,0-75.22,0-113.12,0
			c0-37.6,0-75.21,0-113.03c-11.14,0-21.96,0-33.13,0c0,33.1,0,66.27,0,99.69c-9.17,0-17.99,0-27.16,0c0-33.11,0-66.28,0-99.68
			c-11.25,0-22.15,0-33.27,0c0,37.68,0,75.19,0,113.02C75.54,320,37.97,320,0,320z M67.06,212.79c9.05,0,17.74,0,26.3,0
			c0-35.55,0-70.82,0-105.95c-8.95,0-17.63,0-26.3,0C67.06,142.3,67.06,177.48,67.06,212.79z M252.81,212.9
			c0-35.52,0-70.89,0-106.18c-8.63,0-16.99,0-25.51,0c0,35.44,0,70.72,0,106.18C235.89,212.9,244.33,212.9,252.81,212.9z
			 M27.14,106.71c0,35.44,0,70.75,0,106.21c6.63,0,13.1,0,19.75,0c0-35.44,0-70.75,0-106.21C40.26,106.71,33.79,106.71,27.14,106.71
			z M293.62,212.92c0-35.46,0-70.77,0-106.21c-6.64,0-13.12,0-19.75,0c0,35.46,0,70.76,0,106.21
			C280.52,212.92,286.99,212.92,293.62,212.92z M113.48,149.55c31.18,0,62.06,0,93.09,0c0-5.5,0-10.76,0-16.18
			c-31.08,0-61.99,0-93.09,0C113.48,138.72,113.48,143.98,113.48,149.55z M206.55,170.09c-31.21,0-62.09,0-93.09,0
			c0,5.52,0,10.77,0,16.18c31.09,0,62,0,93.09,0C206.55,180.87,206.55,175.62,206.55,170.09z"/>
	</g>
</g>
</svg>
